<svg xmlns="http://www.w3.org/2000/svg" viewBox="0 0 720 820" width="720" height="820" font-family="WenQuanYi Zen Hei, Noto Sans CJK KR, sans-serif"><rect width="720" height="820" fill="#fbfbfd"/><defs><marker id="arr" markerWidth="10" markerHeight="10" refX="7" refY="5" orient="auto"><path d="M0,0 L10,5 L0,10 Z" fill="#d6394e"/></marker></defs><text x="40" y="44" font-size="24" font-weight="700" fill="#1d2b3a">lips_round</text><text x="40" y="68" font-size="14" fill="#566779">원순 — 입술이 좁은 원형으로 모아져 앞으로 돌출</text><text x="40" y="108" font-size="15" font-weight="700" fill="#1d2b3a">① 정면 뷰 (Front view) — 입술이 좁은 원형으로 모아짐</text><path d="M90.0,280 Q123.0,258.0 161.5,264.0 Q180.2,250.0 200,258.0 Q219.8,250.0 238.5,264.0 Q277.0,258.0 310.0,280 Q245.0,280 240.0,288.0 Q200,289.0 160.0,288.0 Q155.0,280 90.0,280 Z" fill="none" stroke="#999" stroke-width="1.2" stroke-dasharray="4 3" opacity="0.6"/><path d="M160.0,288.0 Q155.0,285 98.8,288 Q134.0,324.0 200,330.0 Q266.0,324.0 301.2,288 Q245.0,285 240.0,288.0 Q200,289.0 160.0,288.0 Z" fill="none" stroke="#999" stroke-width="1.2" stroke-dasharray="4 3" opacity="0.6"/><text x="150" y="358" font-size="11" fill="#888" font-style="italic">중립 (rest)</text><path d="M433.0,280 Q456.1,259.1 483.05,264.8 Q496.14,251.5 510,259.1 Q523.86,251.5 536.95,264.8 Q563.9,259.1 587.0,280 Q536.0,280 531.0,298.0 Q510,299.0 489.0,298.0 Q484.0,280 433.0,280 Z" fill="#c75f57" stroke="#6e2f2a" stroke-width="1.2"/><path d="M489.0,298.0 Q484.0,285 439.15999999999997,288 Q463.8,321.8 510,327.5 Q556.2,321.8 580.84,288 Q536.0,285 531.0,298.0 Q510,299.0 489.0,298.0 Z" fill="#c75f57" stroke="#6e2f2a" stroke-width="1.2"/><text x="460" y="358" font-size="12" font-weight="600" fill="#7a2f2f">lips_round=1.0</text><circle cx="510" cy="288" r="21.0" fill="none" stroke="#3a9bd6" stroke-width="1.2" stroke-dasharray="3 2"/><text x="550" y="325" font-size="11" fill="#1f6b9c">원형 좁힘</text><text x="40" y="440" font-size="15" font-weight="700" fill="#1d2b3a">② 측면 단면 (Sagittal view)</text><text x="40" y="458" font-size="12" fill="#566779">옆에서 본 입술 프로파일 — 중립과 비교</text><rect x="245" y="568" width="22" height="14" fill="#fbf6ea" stroke="#bca787" stroke-width="0.5"/><rect x="245" y="590" width="22" height="14" fill="#fbf6ea" stroke="#bca787" stroke-width="0.5"/><ellipse cx="280" cy="572" rx="14" ry="8" fill="#c75f57" stroke="#6e2f2a" stroke-width="0.8"/><ellipse cx="280" cy="594" rx="14" ry="9" fill="#c75f57" stroke="#6e2f2a" stroke-width="0.8"/><path d="M170,530 Q230,550 250,565 L250,610 Q230,625 170,640" fill="none" stroke="#b78a64" stroke-width="0.8" stroke-dasharray="3 3" opacity="0.5"/><text x="170" y="670" font-size="11" fill="#888" font-style="italic">중립</text><rect x="555" y="568" width="22" height="14" fill="#fbf6ea" stroke="#bca787" stroke-width="0.5"/><rect x="555" y="590" width="22" height="14" fill="#fbf6ea" stroke="#bca787" stroke-width="0.5"/><ellipse cx="612.0" cy="572" rx="14" ry="8" fill="#c75f57" stroke="#6e2f2a" stroke-width="0.8"/><ellipse cx="612.0" cy="594.0" rx="14" ry="9" fill="#c75f57" stroke="#6e2f2a" stroke-width="0.8"/><path d="M480,530 Q540,550 560,565 L560,610 Q540,625 480,640" fill="none" stroke="#b78a64" stroke-width="0.8" stroke-dasharray="3 3" opacity="0.5"/><text x="480" y="670" font-size="12" font-weight="600" fill="#7a2f2f">lips_round=1.0</text><line x1="605" y1="580" x2="635" y2="580" stroke="#d6394e" stroke-width="2.5" marker-end="url(#arr)"/><text x="610" y="568" font-size="11" fill="#d6394e">입술 앞으로</text><rect x="30" y="730" width="660" height="74" rx="6" fill="#f3f7fb" stroke="#cad5e0" stroke-width="0.8"/><text x="40" y="752" font-size="13" font-weight="700" fill="#1d2b3a">활용 예</text><text x="40" y="772" font-size="12" fill="#333">모음 ㅗ /o/, ㅜ /u/, ㅛ /jo/, ㅠ /ju/, ㅘ /wa/, ㅝ /wʌ/ 등 원순 모음</text><text x="40" y="798" font-size="11" fill="#566779">회색 점선 = 중립(rest) 위치 · 진한 색 = 타깃 1.0 변형</text></svg>