<svg xmlns="http://www.w3.org/2000/svg" viewBox="0 0 720 820" width="720" height="820" font-family="WenQuanYi Zen Hei, Noto Sans CJK KR, sans-serif"><rect width="720" height="820" fill="#fbfbfd"/><defs><marker id="arr" markerWidth="10" markerHeight="10" refX="7" refY="5" orient="auto"><path d="M0,0 L10,5 L0,10 Z" fill="#d6394e"/></marker></defs><text x="40" y="44" font-size="24" font-weight="700" fill="#1d2b3a">lips_spread</text><text x="40" y="68" font-size="14" fill="#566779">입술 좌우로 펼침</text><path d="M 209.00,155.00 L 352.00,109.50 L 469.00,142.00 L 534.00,207.00 L 566.50,278.50 L 553.50,330.50 L 566.50,376.00 L 631.50,408.50 L 651.00,454.00 L 625.00,486.50 L 586.00,503.40 L 575.60,529.40 L 596.40,551.50 L 591.20,586.60 L 575.60,610.00 L 591.20,638.60 L 580.80,675.00 L 547.00,707.50 L 495.00,733.50 L 423.50,753.00 L 345.50,766.00 L 300.00,798.50 L 289.60,863.50 L 289.60,909.00 L 144.00,915.50 L 111.50,857.00 L 105.00,753.00 L 98.50,597.00 L 92.00,454.00 L 89.40,350.00 L 105.00,259.00 L 131.00,187.50 L 170.00,148.50 Z" fill="#fde7d3" stroke="#b78a64" stroke-width="1.4"/><path d="M 540.50,464.40 L 547.00,415.00 L 449.50,350.00 L 300.00,337.00 L 209.00,382.50 L 193.40,443.60 L 219.40,467.00 L 248.00,438.40 L 276.60,469.60 L 310.40,434.50 L 344.20,469.60 L 380.60,433.20 L 417.00,469.60 L 456.00,435.80 L 495.00,467.00 L 518.40,451.40 Z" fill="#f5c0c8" fill-opacity="0.55" stroke="#a4576a" stroke-width="0.8"/><path d="M 267.50,493.00 L 365.00,485.20 L 482.00,493.00 L 510.60,506.00 L 510.60,480.00 L 482.00,469.60 L 365.00,461.80 L 267.50,472.20 Z" fill="#f1e2c4" stroke="#7a5a3e" stroke-width="0.9"/><path d="M 540.50,623.00 L 560.00,642.50 L 534.00,694.50 L 443.00,720.50 L 326.00,727.00 L 306.50,694.50 L 417.00,662.00 L 495.00,646.40 Z" fill="#eed9b6" stroke="#7a5a3e" stroke-width="0.9"/><path d="M 495.00,538.50 L 518.40,538.50 L 518.40,565.80 L 495.00,565.80 Z" fill="#fbf6ea" stroke="#bca787" stroke-width="0.5"/><path d="M 495.00,581.40 L 518.40,581.40 L 518.40,610.00 L 495.00,610.00 Z" fill="#fbf6ea" stroke="#bca787" stroke-width="0.5"/><path d="M 267.50,485.20 L 235.00,490.40 L 196.00,506.00 L 173.90,534.60 L 196.00,524.20 L 228.50,508.60 L 261.00,495.60 Z" fill="#e08c92" fill-opacity="0.55" stroke="#7d3641" stroke-width="0.7"/><path d="M 180.40,675.00 L 172.60,584.00 L 193.40,529.40 L 261.00,519.00 L 339.00,521.60 L 397.50,539.80 L 406.60,610.00 L 365.00,668.50 L 261.00,681.50 Z" fill="#d97676" fill-opacity="0.6" stroke="#7a2f2f" stroke-width="0.8"/><path d="M 397.50,537.20 L 478.10,545.00 L 483.30,565.80 L 397.50,571.00 Z" fill="#d97676" fill-opacity="0.6" stroke="#7a2f2f" stroke-width="0.8"/><path d="M 534.00,529.40 L 570.40,526.80 L 578.20,547.60 L 554.80,552.80 L 534.00,545.00 Z" fill="none" stroke="#999" stroke-width="0.7" stroke-dasharray="4 3" opacity="0.55"/><path d="M 523.60,529.40 L 560.00,526.80 L 567.80,547.60 L 544.40,552.80 L 523.60,545.00 Z" fill="#c75f57" stroke="#6e2f2a" stroke-width="1.0"/><path d="M 534.00,589.20 L 560.00,597.00 L 573.00,617.80 L 549.60,625.60 L 534.00,604.80 Z" fill="none" stroke="#999" stroke-width="0.7" stroke-dasharray="4 3" opacity="0.55"/><path d="M 523.60,589.20 L 549.60,597.00 L 562.60,617.80 L 539.20,625.60 L 523.60,604.80 Z" fill="#c75f57" stroke="#6e2f2a" stroke-width="1.0"/><line x1="566.50" y1="571.00" x2="547.00" y2="571.00" stroke="#d6394e" stroke-width="3" marker-end="url(#arr)"/><text x="40" y="790" font-size="13" fill="#566779">※ 정중시상에서는 효과가 미세. 주로 좌우(폭) 확장. 예: ㅣ, ㅔ</text><text x="40" y="808" font-size="11" fill="#9aa6b3">회색 점선 = 중립(rest) 위치 · 진한 색 = 타깃 1.0 변형</text></svg>